<svg xmlns="http://www.w3.org/2000/svg" viewBox="0 0 64 64" id="cloud-computing">
  <path fill="#2a2f63" d="M60.84,52.23l-3.75-2.16a.48.48,0,0,0-.49,0,.49.49,0,0,0-.25.42v.69h-5.9v-1a.49.49,0,0,0-.49-.5H49V42.47h4a10.18,10.18,0,0,0,5.1-19,8,8,0,0,0,.18-1.72A8.75,8.75,0,0,0,49.55,13a8.6,8.6,0,0,0-2.22.28A12.81,12.81,0,0,0,35.53,5.6a12.17,12.17,0,0,0-2.71.3l-3-3a.48.48,0,0,0-.35-.14.5.5,0,0,0-.35.14L27.58,4.45a13.67,13.67,0,0,0-4.26-1.76V.49a.49.49,0,0,0-.5-.49H17.49a.5.5,0,0,0-.5.49V2.68a13.69,13.69,0,0,0-4.27,1.77L11.18,2.89a.54.54,0,0,0-.36-.14.46.46,0,0,0-.34.14L6.71,6.68a.46.46,0,0,0,0,.68L8.25,8.91a13.52,13.52,0,0,0-1.77,4.27H4.28a.5.5,0,0,0-.49.5V19a.5.5,0,0,0,.49.5h2.2a13.15,13.15,0,0,0,1.15,3.16A10.18,10.18,0,0,0,11,42.47h6V49.8a3.23,3.23,0,0,0-1.36,1.38h-6v-.69a.49.49,0,0,0-.25-.42.48.48,0,0,0-.49,0L5.14,52.23a.49.49,0,0,0,0,.85l3.75,2.17a.43.43,0,0,0,.25.07.44.44,0,0,0,.24-.07.5.5,0,0,0,.25-.43v-.68h6A3.22,3.22,0,1,0,20,49.8V42.47h6.68V59.26H26a.5.5,0,0,0-.42.25.48.48,0,0,0,0,.49l2.17,3.75a.49.49,0,0,0,.42.25.5.5,0,0,0,.43-.25L30.74,60a.48.48,0,0,0,0-.49.49.49,0,0,0-.42-.25h-.68V42.47h6.7V59.26h-.68a.52.52,0,0,0-.43.25.48.48,0,0,0,0,.49l2.17,3.75a.49.49,0,0,0,.43.25.5.5,0,0,0,.42-.25L40.42,60a.48.48,0,0,0,0-.49.51.51,0,0,0-.42-.25h-.69V42.47H46v7.21H45a.5.5,0,0,0-.5.5v5a.49.49,0,0,0,.5.49h5a.48.48,0,0,0,.49-.49v-1h5.9v.68a.5.5,0,0,0,.25.43.42.42,0,0,0,.24.07.43.43,0,0,0,.25-.07l3.75-2.17a.49.49,0,0,0,0-.85Zm-52.2-.59V54L6.37,52.66l2.27-1.31Zm6.67,1.52H9.63v-1h5.68a2.73,2.73,0,0,0-.05.5A2.83,2.83,0,0,0,15.31,53.16ZM7.36,18.91a.5.5,0,0,0-.49-.39H4.78V14.17H6.87a.49.49,0,0,0,.49-.4A13,13,0,0,1,9.28,9.12a.48.48,0,0,0,0-.62L7.75,7l3.07-3.08,1.49,1.49a.5.5,0,0,0,.62.05,13.31,13.31,0,0,1,4.66-1.93A.49.49,0,0,0,18,3.07V1h4.35v2.1a.48.48,0,0,0,.4.48,12.86,12.86,0,0,1,4.64,1.93.5.5,0,0,0,.62,0L29.48,4l2.23,2.24a12.94,12.94,0,0,0-6.32,4.37,7.72,7.72,0,0,0-5.24-2,7.83,7.83,0,0,0-7.82,7.83c0,.13,0,.26,0,.39a9.86,9.86,0,0,0-1.85,5.37,9.78,9.78,0,0,0-1.9.28A12.15,12.15,0,0,1,7.36,18.91Zm17.45-7.54A12.83,12.83,0,0,0,23.92,13a9.89,9.89,0,0,0-3.25-.53,10.16,10.16,0,0,0-7.31,3.1,6.86,6.86,0,0,1,6.79-6A6.73,6.73,0,0,1,24.81,11.37ZM20.75,52.66a2.25,2.25,0,1,1-2.26-2.26A2.26,2.26,0,0,1,20.75,52.66ZM18,49.48v-7h1v7a2.63,2.63,0,0,0-.5-.06A2.84,2.84,0,0,0,18,49.48Zm10.16,13-1.31-2.27h2.63Zm-.5-3.26V42.47h1V59.26Zm10.18,3.26-1.32-2.27h2.63Zm-.5-3.26V42.47h1V59.26Zm1.49-17.78H11a9.2,9.2,0,0,1,0-18.39.5.5,0,0,0,.49-.49,9.22,9.22,0,0,1,9.21-9.2A9,9,0,0,1,24,14a.49.49,0,0,0,.63-.27A11.9,11.9,0,0,1,32.84,6.9h0a11.86,11.86,0,0,1,13.72,7.19.51.51,0,0,0,.61.29A7.47,7.47,0,0,1,49.55,14a7.76,7.76,0,0,1,7.75,7.75,7.25,7.25,0,0,1-.22,1.84.49.49,0,0,0,.24.56A9.19,9.19,0,0,1,53,41.48H38.82Zm9.16,1v7.21H47V42.47Zm1.49,9.18v3h-4v-4h4Zm6.88,1.51h-5.9v-1h5.9Zm1,.81V51.35l2.28,1.31Z"></path>
  <path fill="#53bf9f" d="M49.47,50.67v4h-4v-4h4Z"></path>
  <polygon fill="#f9af48" points="29.47 60.25 28.15 62.52 26.84 60.25 29.47 60.25"></polygon>
  <path fill="#f26e61" d="M8.64,51.64V54L6.37,52.66l2.27-1.31Z"></path>
  <polygon fill="#f9af48" points="39.14 60.25 37.83 62.52 36.51 60.25 39.14 60.25"></polygon>
  <polygon fill="#f26e61" points="59.61 52.66 57.33 53.97 57.33 51.35 59.61 52.66"></polygon>
  <rect width="5.9" height=".99" x="50.45" y="52.16" fill="#ededed"></rect>
  <rect width="1" height="7.22" x="46.98" y="42.47" fill="#ededed"></rect>
  <rect width=".99" height="16.8" x="37.33" y="42.47" fill="#ededed"></rect>
  <rect width="1" height="16.8" x="27.65" y="42.47" fill="#ededed"></rect>
  <path fill="#ededed" d="M19 42.47v7a2.63 2.63 0 0 0-.5-.06 2.84 2.84 0 0 0-.5.06v-7zM15.26 52.66a2.83 2.83 0 0 0 .05.5H9.63v-1h5.68A2.73 2.73 0 0 0 15.26 52.66z"></path>
  <path fill="#ffdc7c" d="M20.75 52.66a2.25 2.25 0 1 1-2.26-2.26A2.26 2.26 0 0 1 20.75 52.66zM31.71 6.19a12.94 12.94 0 0 0-6.32 4.37 7.72 7.72 0 0 0-5.24-2 7.83 7.83 0 0 0-7.82 7.83c0 .13 0 .26 0 .39a9.86 9.86 0 0 0-1.85 5.37 9.78 9.78 0 0 0-1.9.28 12.15 12.15 0 0 1-1.24-3.48.5.5 0 0 0-.49-.39H4.78V14.17H6.87a.49.49 0 0 0 .49-.4A13 13 0 0 1 9.28 9.12a.48.48 0 0 0 0-.62L7.75 7l3.07-3.08 1.49 1.49a.5.5 0 0 0 .62.05 13.31 13.31 0 0 1 4.66-1.93A.49.49 0 0 0 18 3.07V1h4.35v2.1a.48.48 0 0 0 .4.48 12.86 12.86 0 0 1 4.64 1.93.5.5 0 0 0 .62 0L29.48 4z"></path>
  <path fill="#f4cf73" d="M31.71,6.19a11.12,11.12,0,0,0-1.21.46L28.76,4.9,27.39,6.27a.44.44,0,0,1-.57.06,11.43,11.43,0,0,0-4.27-1.78.46.46,0,0,1-.37-.44V2.17h-4V4.1a.47.47,0,0,1-.37.44,11.84,11.84,0,0,0-4.29,1.78A.44.44,0,0,1,13,6.26L11.58,4.89,8.75,7.74,10.11,9.1a.43.43,0,0,1,.06.57A11.89,11.89,0,0,0,8.39,14a.45.45,0,0,1-.44.37H6v4H8a.44.44,0,0,1,.44.36,12,12,0,0,0,1.29,3.49,7.37,7.37,0,0,0-1.08.2,12.15,12.15,0,0,1-1.24-3.48.5.5,0,0,0-.49-.39H4.78V14.17H6.87a.49.49,0,0,0,.49-.4A13,13,0,0,1,9.28,9.12a.48.48,0,0,0,0-.62L7.75,7l3.07-3.08,1.49,1.49a.5.5,0,0,0,.62.05,13.31,13.31,0,0,1,4.66-1.93A.49.49,0,0,0,18,3.07V1h4.35v2.1a.48.48,0,0,0,.4.48,12.86,12.86,0,0,1,4.64,1.93.5.5,0,0,0,.62,0L29.48,4Z"></path>
  <path fill="#a0d2f1" d="M62.22,32.3A9.21,9.21,0,0,1,53,41.48H11a9.2,9.2,0,0,1,0-18.39.5.5,0,0,0,.49-.49,9.22,9.22,0,0,1,9.21-9.2A9,9,0,0,1,24,14a.49.49,0,0,0,.63-.27A11.9,11.9,0,0,1,32.84,6.9h0a11.86,11.86,0,0,1,13.72,7.19.51.51,0,0,0,.61.29A7.47,7.47,0,0,1,49.55,14a7.76,7.76,0,0,1,7.75,7.75,7.25,7.25,0,0,1-.22,1.84.49.49,0,0,0,.24.56A9.18,9.18,0,0,1,62.22,32.3Z"></path>
  <path fill="#8dc0d6" d="M45.69,12.29a11.82,11.82,0,0,0-8.3-3.36,10.89,10.89,0,0,0-2.69.32h0a11.81,11.81,0,0,0-8.22,6.85.49.49,0,0,1-.63.26A9.2,9.2,0,0,0,13.3,24.94a.48.48,0,0,1-.49.49,9.18,9.18,0,0,0-8,13.67,9.2,9.2,0,0,1,6.18-16,.5.5,0,0,0,.49-.49,9.22,9.22,0,0,1,9.21-9.2A9,9,0,0,1,24,14a.49.49,0,0,0,.63-.27A11.9,11.9,0,0,1,32.84,6.9h0a11.86,11.86,0,0,1,12.83,5.39Z"></path>
  <path fill="#93cae5" d="M46.73,14.28a11.51,11.51,0,0,0-5.59,0h0a11.87,11.87,0,0,0-8.21,6.86.49.49,0,0,1-.63.27A8.8,8.8,0,0,0,29,20.73a9.21,9.21,0,0,0-9.21,9.19.49.49,0,0,1-.49.49,9.21,9.21,0,0,0-9.19,9.21,8.48,8.48,0,0,0,.19,1.83A9.14,9.14,0,0,1,4.79,39.1a9.18,9.18,0,0,1,8-13.67.48.48,0,0,0,.49-.49,9.2,9.2,0,0,1,12.54-8.58.49.49,0,0,0,.63-.26,11.81,11.81,0,0,1,8.22-6.85h0a10.89,10.89,0,0,1,2.69-.32,11.82,11.82,0,0,1,8.3,3.36,12.55,12.55,0,0,1,.89,1.8A.4.4,0,0,0,46.73,14.28Z"></path>
</svg>
