<svg xmlns="http://www.w3.org/2000/svg" width="32" height="32" id="cloud">
  <path fill="#00e4ff" d="M21 4a6.493 6.493 0 0 0-5.258 2.69A4 4 0 0 0 13.5 6 4 4 0 0 0 9.5 10c.002.18.015.358.04.535A2.5 2.5 0 0 0 5.551 12h-.05A3.99 3.99 0 0 0 1.5 15.999c0 2.216 1.785 4 4 4H25.5c2.216 0 4-1.784 4-4a3.98 3.98 0 0 0-2.283-3.603A6.5 6.5 0 0 0 21 3.999z"></path>
  <path fill="#00a5ff" d="M21 4c-.513 0-1.017.063-1.506.18A6.498 6.498 0 0 1 24.5 10.5c0 .643-.097 1.281-.285 1.896A3.98 3.98 0 0 1 26.5 16c0 2.216-1.784 4-4 4h3c2.216 0 4-1.784 4-4a3.98 3.98 0 0 0-2.285-3.604A6.496 6.496 0 0 0 27.5 10.5C27.5 6.91 24.59 4 21 4z"></path>
  <path fill="#00a5ff" d="M27.477 13.043c.327.577.523 1.241.523 1.957 0 2.216-1.784 4-4 4H4c-.72 0-1.383-.204-1.965-.534A3.974 3.974 0 0 0 5.5 20.5h20c2.216 0 4-1.784 4-4 0-1.492-.819-2.771-2.023-3.457z"></path>
  <path fill="#fff" d="M21 4c-.254 0-.505.016-.754.045A6.501 6.501 0 0 1 26 10.5c0 .643-.097 1.281-.285 1.896A3.98 3.98 0 0 1 28 16c0 2.216-1.784 4-4 4h1.5c2.216 0 4-1.784 4-4a3.98 3.98 0 0 0-2.285-3.604A6.496 6.496 0 0 0 27.5 10.5C27.5 6.91 24.59 4 21 4z"></path>
  <path d="M21 1023.861a.5.5 0 0 0-.229.055c-2.024.07-3.88 1.028-5.152 2.598-.659-.36-1.364-.652-2.119-.652a.5.5 0 1 0 0 1c.7 0 1.382.21 1.96.603a.5.5 0 0 0 .686-.12 5.993 5.993 0 0 1 10.592 5.267.5.5 0 0 0 .264.597 3.473 3.473 0 0 1 1.998 3.153c0 1.947-1.552 3.5-3.5 3.5h-20a3.481 3.481 0 0 1-3.5-3.5 3.48 3.48 0 0 1 3.5-3.498H5.551a.5.5 0 0 0 .49-.4 1.992 1.992 0 0 1 .693-1.15.5.5 0 1 0-.63-.775c-.26.213-.487.47-.665.76-.115.19-.173.412-.246.627-2.333.166-4.193 2.06-4.193 4.435 0 2.485 2.016 4.5 4.5 4.5h20c2.484 0 4.5-2.015 4.5-4.5 0-1.642-.944-2.998-2.258-3.78.144-.565.258-1.137.258-1.72 0-3.86-3.14-7-7-7zm-9.072 2.313a.5.5 0 0 0-.18.043c-.27.114-.524.252-.764.414a.5.5 0 1 0 .559.828c.186-.126.387-.234.596-.322a.5.5 0 0 0-.211-.963zm-1.75 1.447a.5.5 0 0 0-.408.225 4.496 4.496 0 0 0-.678 1.611c-.05.245-.066.5-.074.758-.34-.13-.649-.353-1.018-.354a.5.5 0 1 0-.002 1c.447 0 .883.152 1.234.428a.5.5 0 0 0 .805-.463 3.521 3.521 0 0 1-.035-.465 3.511 3.511 0 0 1 .273-1.357c.089-.21.197-.408.323-.594a.5.5 0 0 0-.42-.785z" color="#000" font-family="sans-serif" font-weight="400" overflow="visible" style="line-height:normal;text-indent:0;text-align:start;text-decoration-line:none;text-decoration-style:solid;text-decoration-color:#000;text-transform:none;block-progression:tb;isolation:auto;mix-blend-mode:normal" transform="translate(0 -1020.362)"></path>
  <path fill="#00a5ff" d="M8.937 23.75h13.125m-13.125-7.5h13.125M15.5 12.498V27.5M8 20h15m0 0a7.5 7.5 0 1 1-15 0 7.5 7.5 0 1 1 15 0z"></path>
  <path fill="#0079fd" d="M15.5 12.5a7.5 7.5 0 1 0 0 15 7.49 7.49 0 0 0 2-.278C14.33 26.346 12 23.448 12 20c0-3.45 2.33-6.347 5.5-7.223a7.49 7.49 0 0 0-2-.277z"></path>
  <path fill="#fff" d="M15.5 12.5a7.5 7.5 0 1 0 0 15c.348 0 .688-.032 1.023-.079-3.658-.5-6.478-3.627-6.478-7.422s2.82-6.923 6.478-7.423a7.498 7.498 0 0 0-1.023-.078z"></path>
  <path d="M15.5 1032.361c-4.412 0-8 3.588-8 8 0 4.413 3.588 8 8 8s8-3.587 8-8c0-4.412-3.588-8-8-8zm-.5 1.102v2.648h-4.926c1.18-1.505 2.9-2.498 4.926-2.648zm1 0c2.025.15 3.747 1.143 4.926 2.648H16v-2.648zm-6.598 3.648H15v2.75H8.602a6.839 6.839 0 0 1 .8-2.75zm6.598 0h5.598c.448.838.726 1.751.8 2.75H16v-2.75zm-7.4 3.75H15v2.75H9.4a6.845 6.845 0 0 1-.8-2.75zm7.4 0h6.4a6.845 6.845 0 0 1-.8 2.75H16v-2.75zm-5.926 3.75H15v2.649c-2.025-.15-3.747-1.143-4.926-2.649zm5.926 0h4.926c-1.18 1.506-2.9 2.498-4.926 2.649v-2.649z" color="#000" font-family="sans-serif" font-weight="400" overflow="visible" style="line-height:normal;text-indent:0;text-align:start;text-decoration-line:none;text-decoration-style:solid;text-decoration-color:#000;text-transform:none;block-progression:tb;isolation:auto;mix-blend-mode:normal" transform="translate(0 -1020.362)"></path>
  <path fill-rule="evenodd" d="M12.457 1033.191c-1.938 4.774-2.26 9.331-.146 14.286l.92-.393c-2.014-4.721-1.72-8.908.152-13.516l-.926-.377zm6.03 0-.926.377c1.87 4.608 2.166 8.794.152 13.516l.92.393c2.113-4.955 1.792-9.512-.147-14.286z" color="#000" font-family="sans-serif" font-weight="400" overflow="visible" style="line-height:normal;text-indent:0;text-align:start;text-decoration-line:none;text-decoration-style:solid;text-decoration-color:#000;text-transform:none;block-progression:tb;isolation:auto;mix-blend-mode:normal" transform="translate(0 -1020.362)"></path>
</svg>
