<svg xmlns="http://www.w3.org/2000/svg" viewBox="0 0 120 120" id="data-analysis">
  <g>
    <rect width="24" height="17.87" x="48" y="82.06" fill="#202c39"></rect>
    <path fill="#b8b08d" d="M14.26,22A4.26,4.26,0,0,0,10,26.22V79.73A4.26,4.26,0,0,0,14.26,84l91.85,0A3.89,3.89,0,0,0,110,80.14V26.22A4.26,4.26,0,0,0,105.74,22Z"></path>
    <path fill="#847e6a" d="M99.07,30A2.93,2.93,0,0,1,102,32.9V73.38A2.65,2.65,0,0,1,99.36,76L20.93,76A2.93,2.93,0,0,1,18,73.06V32.9A2.93,2.93,0,0,1,20.93,30Z"></path>
    <path fill="#f2d492" d="M29.38,10H90.62A3.38,3.38,0,0,1,94,13.38V76a0,0,0,0,1,0,0H26a0,0,0,0,1,0,0V13.38A3.38,3.38,0,0,1,29.38,10Z"></path>
    <path fill="#ffe8c0" d="M30,70.14a2.5,2.5,0,0,0,2.5,2.5h55a2.5,2.5,0,0,0,2.5-2.5V23.88a2.5,2.5,0,0,0-2.5-2.5h-55a2.5,2.5,0,0,0-2.5,2.5Z"></path>
    <rect width="4.98" height="10.47" x="41.8" y="57" fill="#f29559"></rect>
    <rect width="5.22" height="15.55" x="52.19" y="51.92" fill="#f29559"></rect>
    <rect width="5.2" height="13.94" x="62.6" y="53.53" fill="#f29559"></rect>
    <rect width="5.2" height="20.88" x="73" y="46.6" fill="#f29559"></rect>
    <path fill="#283845" d="M35.75,69.16A1.74,1.74,0,0,1,34,67.43V32.58a1.74,1.74,0,1,1,3.47,0V65.69l46.79,0h0a1.74,1.74,0,0,1,0,3.47l-48.52,0Z"></path>
    <path fill="#384f5e" d="M39.31,98H80.69A5.31,5.31,0,0,1,86,103.31V110a0,0,0,0,1,0,0H34a0,0,0,0,1,0,0v-6.69A5.31,5.31,0,0,1,39.31,98Z"></path>
    <rect width="4" height="4" x="70" y="14.03" fill="#384f5e" rx="2"></rect>
    <rect width="4" height="4" x="78" y="14.03" fill="#384f5e" rx="2"></rect>
    <rect width="4" height="4" x="86" y="14.03" fill="#384f5e" rx="2"></rect>
  </g>
</svg>
